<svg width="61" height="61" viewBox="0 0 61 61" fill="none" xmlns="http://www.w3.org/2000/svg">
<path d="M45.3113 35.9058H15.6887C13.9968 35.9058 12.6245 37.2775 12.6245 38.97C12.6245 40.6625 13.9968 42.0343 15.6887 42.0343H45.3113C47.0032 42.0343 48.3755 40.6625 48.3755 38.97C48.3755 37.2775 47.0032 35.9058 45.3113 35.9058ZM21.0935 39.7539C21.0935 40.226 20.7104 40.609 20.2383 40.609H18.6706C18.1985 40.609 17.8154 40.226 17.8154 39.7539V38.1861C17.8154 37.714 18.1985 37.331 18.6706 37.331H20.2383C20.7104 37.331 21.0935 37.714 21.0935 38.1861V39.7539ZM43.1846 39.7539C43.1846 40.226 42.8015 40.609 42.3294 40.609H40.7617C40.2896 40.609 39.9065 40.226 39.9065 39.7539V38.1861C39.9065 37.714 40.2896 37.331 40.7617 37.331H42.3294C42.8015 37.331 43.1846 37.714 43.1846 38.1861V39.7539Z" fill="#F3D038"/>
<path d="M7.66174 42.6044C7.22638 41.1563 6.99812 39.6543 6.98364 38.1422V35.0674C7.00035 34.1048 7.10056 33.1455 7.28205 32.2002H5.14699C2.30877 32.2002 0 34.5641 0 37.4023C0 40.2405 2.30877 42.6044 5.14699 42.6044H7.66174Z" fill="#F3D038"/>
<path d="M55.853 32.2002H53.7179C53.8994 33.1455 53.9997 34.1048 54.0164 35.0674V38.1422C54.0019 39.6543 53.7736 41.1563 53.3383 42.6044H55.853C58.6912 42.6044 61 40.2405 61 37.4023C61 34.5641 58.6912 32.2002 55.853 32.2002Z" fill="#F3D038"/>
<path d="M52.1635 35.0843C52.1635 27.5094 46.0228 21.3687 38.4479 21.3687H22.4096C14.8347 21.3687 8.69391 27.5094 8.69391 35.0843V38.1525C8.69391 45.7279 14.8347 51.8687 22.4096 51.8687H38.4479C46.0228 51.8687 52.1635 45.7279 52.1635 38.1525V35.0843ZM45.3113 43.7448H15.6887C13.052 43.7448 10.9142 41.607 10.9142 38.9703C10.9142 36.3331 13.052 34.1958 15.6887 34.1958H45.3113C47.948 34.1958 50.0858 36.3331 50.0858 38.9703C50.0858 41.607 47.948 43.7448 45.3113 43.7448Z" fill="#F3D038"/>
<path d="M50.4405 13.1278C50.421 15.0168 51.7399 16.6558 53.5888 17.0417V31.3452H55.2991V17.0417C57.1491 16.6564 58.4696 15.0179 58.4529 13.1278C58.4529 10.9154 56.6592 9.12158 54.4467 9.12158C52.2342 9.12158 50.4405 10.9154 50.4405 13.1278Z" fill="#F3D038"/>
</svg>
