<svg width="671" height="573" viewBox="0 0 671 573" fill="none" xmlns="http://www.w3.org/2000/svg">
<g clip-path="url(#clip0_0_420)">
<path d="M74.3071 392.273L72.4578 407.842L61.4967 436.324L71.5332 439.418L79.2497 409.708L80.2584 392.962L74.3071 392.273Z" fill="#F4F4F4"/>
<path d="M50.855 467.58L55.764 517.146L54.1332 560.709H71.0121L71.9199 557.464L60.3367 555.934L66.5066 517.348L72.088 469.379L50.855 467.58Z" fill="url(#paint0_linear_0_420)"/>
<path d="M45.2735 467.025L41.4405 509.244L15.6011 543.577L18.6777 559.785H26.3942L21.771 556.321L20.9976 545.897L45.6938 518.121L68.0532 468.354L45.2735 467.025Z" fill="#3878FF"/>
<path d="M80.2584 392.962L79.9558 377.259L76.7952 376.872L74.3071 392.273L80.2584 392.962Z" fill="#F76D59"/>
<path d="M49.5605 414.719C48.4005 420.419 48.3332 429.145 56.9071 430.523C58.5222 430.88 60.192 430.91 61.8188 430.612C63.4456 430.314 64.9966 429.694 66.3808 428.789C67.7649 427.884 68.9545 426.712 69.8797 425.341C70.8049 423.97 71.447 422.428 71.7686 420.805C73.0126 415.122 70.9112 407.792 62.1187 406.665C56.3356 405.909 50.4347 410.146 49.5605 414.719Z" fill="#F76D59"/>
<path d="M55.7135 430.137C49.6109 428.455 47.3077 422.587 48.1651 416.686C48.4091 415.107 48.9664 413.592 49.804 412.232C50.6417 410.871 51.7429 409.691 53.0429 408.763C54.343 407.834 55.8156 407.174 57.3742 406.823C58.9328 406.471 60.5459 406.435 62.1187 406.716C62.4515 406.797 62.7775 406.903 63.0938 407.035C63.2227 407.873 63.1594 408.73 62.9089 409.54C62.385 410.962 61.5431 412.244 60.4475 413.291C59.352 414.337 58.0317 415.119 56.5877 415.576C56.5877 415.576 54.7889 428.287 55.7135 430.137Z" fill="#1F1F89"/>
<path d="M55.0075 416.501C54.1343 416.388 53.2484 416.566 52.4857 417.005C50.0144 418.351 50.8046 422.049 53.0573 423.243C53.7786 423.598 54.5597 423.814 55.3605 423.882C56.0498 423.987 56.7548 423.876 57.3779 423.563C57.6619 423.372 57.9028 423.124 58.0852 422.834C58.2676 422.544 58.3874 422.22 58.437 421.881C58.5706 421.221 58.5706 420.541 58.437 419.881C58.2309 419.057 57.8018 418.305 57.1968 417.709C56.5919 417.113 55.8344 416.695 55.0075 416.501Z" fill="#F76D59"/>
<path d="M64.3883 413.037C64.609 413.956 65.1773 414.753 65.9737 415.261C66.7701 415.769 67.7325 415.948 68.6584 415.761C69.3899 415.218 69.9251 414.452 70.1834 413.578C70.4417 412.704 70.409 411.77 70.0904 410.916C69.7717 410.063 69.1843 409.336 68.4166 408.845C67.6489 408.354 66.7426 408.126 65.8341 408.195C65.0147 408.66 64.4067 409.423 64.1372 410.325C63.8677 411.228 63.9577 412.2 64.3883 413.037Z" fill="#F7F5EF"/>
<path d="M75.0132 375.09C75.0032 375.797 75.2037 376.491 75.5892 377.084C75.9746 377.676 76.5277 378.141 77.178 378.419C77.8283 378.696 78.5465 378.774 79.2411 378.642C79.9358 378.51 80.5755 378.175 81.079 377.679C81.5825 377.182 81.927 376.547 82.0687 375.854C82.2103 375.162 82.1428 374.442 81.8745 373.788C81.6063 373.134 81.1496 372.574 80.5625 372.18C79.9753 371.786 79.2843 371.576 78.5772 371.576C77.6393 371.571 76.7378 371.938 76.0699 372.597C75.402 373.255 75.0221 374.152 75.0132 375.09Z" fill="#8E574A"/>
<path d="M91.7071 398.914L86.3106 400.697C84.126 407.06 80.4747 412.819 75.652 417.51L65.5651 427.312L53.1414 435.719L43.9118 469.951L72.7773 472.675L73.7355 434.962L84.4445 421.511C88.8505 416.003 91.8352 409.496 93.1361 402.563L91.7071 398.914Z" fill="#F7F5EF"/>
<path d="M105.392 313.586H65.1616C58.2909 313.586 52.7211 319.157 52.7211 326.028V366.263C52.7211 373.134 58.2909 378.705 65.1616 378.705H105.392C112.262 378.705 117.832 373.134 117.832 366.263V326.028C117.832 319.157 112.262 313.586 105.392 313.586Z" fill="#F7F5EF"/>
<path d="M92.7662 377.46C92.7662 378.162 92.9743 378.848 93.3641 379.431C93.7538 380.015 94.3078 380.469 94.956 380.738C95.6042 381.006 96.3174 381.077 97.0055 380.94C97.6936 380.803 98.3257 380.465 98.8217 379.969C99.3178 379.473 99.6557 378.841 99.7925 378.152C99.9294 377.464 99.8592 376.751 99.5907 376.103C99.3222 375.454 98.8676 374.9 98.2842 374.51C97.7009 374.121 97.0151 373.913 96.3135 373.913C95.3727 373.913 94.4704 374.286 93.8052 374.952C93.14 375.617 92.7662 376.519 92.7662 377.46Z" fill="#F76D59"/>
<path d="M85.7558 402.58L92.8503 405.102L98.5494 379.091L94.481 378.167L85.7558 402.58Z" fill="#F76D59"/>
<path d="M101.038 337.949C101.038 347.079 84.5285 371.29 84.5285 371.29C84.5285 371.29 68.0196 347.079 68.0196 337.949C68.0196 333.57 69.7589 329.37 72.855 326.274C75.951 323.178 80.1501 321.438 84.5285 321.438C88.907 321.438 93.1061 323.178 96.2021 326.274C99.2982 329.37 101.038 333.57 101.038 337.949Z" fill="#F3D038"/>
<path d="M92.4636 336.637C92.4636 338.204 91.9992 339.735 91.1292 341.037C90.2591 342.339 89.0224 343.354 87.5756 343.954C86.1287 344.553 84.5366 344.71 83.0006 344.404C81.4646 344.099 80.0537 343.345 78.9463 342.237C77.839 341.13 77.0848 339.718 76.7793 338.182C76.4738 336.646 76.6306 335.054 77.2299 333.607C77.8292 332.16 78.8441 330.923 80.1462 330.053C81.4484 329.183 82.9793 328.718 84.5454 328.718C85.5858 328.716 86.6165 328.919 87.5782 329.317C88.5399 329.714 89.4136 330.297 90.1494 331.033C90.8851 331.769 91.4683 332.642 91.8654 333.604C92.2625 334.566 92.4658 335.597 92.4636 336.637Z" fill="#F7F5EF"/>
<path opacity="0.5" d="M1.68115 560.39H129.449" stroke="#0A5DE2" stroke-width="2" stroke-miterlimit="10" stroke-linecap="round"/>
<path d="M401.78 77.8459H260.596C252.62 77.8459 246.155 84.3122 246.155 92.2886V429.935C246.155 437.911 252.62 444.378 260.596 444.378H401.78C409.755 444.378 416.221 437.911 416.221 429.935V92.2886C416.221 84.3122 409.755 77.8459 401.78 77.8459Z" fill="#F7F5EF"/>
<path d="M401.796 77.8459H260.579C256.751 77.8504 253.08 79.3735 250.373 82.081C247.666 84.7886 246.143 88.4596 246.138 92.2886V106.916H416.221V92.2886C416.216 88.4625 414.696 84.794 411.992 82.087C409.288 79.3799 405.622 77.8548 401.796 77.8459Z" fill="#1F1F89"/>
<path d="M246.155 411.524V430.019C246.177 433.832 247.706 437.481 250.408 440.171C253.11 442.861 256.767 444.373 260.579 444.378H401.796C405.626 444.378 409.3 442.856 412.008 440.147C414.716 437.439 416.238 433.765 416.238 429.935V411.44L246.155 411.524Z" fill="#1F1F89"/>
<path d="M389.507 116.87H349.277C342.406 116.87 336.837 122.44 336.837 129.312V169.546C336.837 176.418 342.406 181.988 349.277 181.988H389.507C396.378 181.988 401.948 176.418 401.948 169.546V129.312C401.948 122.44 396.378 116.87 389.507 116.87Z" fill="#F3D038"/>
<path d="M389.507 314.461H349.277C342.406 314.461 336.837 320.031 336.837 326.903V367.137C336.837 374.008 342.406 379.579 349.277 379.579H389.507C396.378 379.579 401.948 374.008 401.948 367.137V326.903C401.948 320.031 396.378 314.461 389.507 314.461Z" fill="#AFC6F5"/>
<path d="M312.594 314.461H272.364C265.493 314.461 259.924 320.031 259.924 326.903V367.137C259.924 374.008 265.493 379.579 272.364 379.579H312.594C319.465 379.579 325.035 374.008 325.035 367.137V326.903C325.035 320.031 319.465 314.461 312.594 314.461Z" fill="#F3D038"/>
<path opacity="0.5" d="M245.466 446.042H428.712" stroke="#0A5DE2" stroke-width="2" stroke-miterlimit="10" stroke-linecap="round"/>
<path d="M459.492 318.651L457.834 318.926L480.163 453.237L481.821 452.961L459.492 318.651Z" fill="#1F1F89"/>
<path d="M418.506 318.649L416.847 318.924L439.176 453.235L440.835 452.959L418.506 318.649Z" fill="#1F1F89"/>
<path d="M463.781 346.507H422.424V348.188H463.781V346.507Z" fill="#1F1F89"/>
<path d="M466.706 364.447H425.349V366.128H466.706V364.447Z" fill="#1F1F89"/>
<path d="M469.631 382.37H428.275V384.051H469.631V382.37Z" fill="#1F1F89"/>
<path d="M472.573 400.31H431.217V401.991H472.573V400.31Z" fill="#1F1F89"/>
<path d="M475.498 418.25H434.142V419.931H475.498V418.25Z" fill="#1F1F89"/>
<path d="M478.424 436.173H437.067V437.854H478.424V436.173Z" fill="#1F1F89"/>
<path d="M415.615 318.634L393.286 452.945L394.944 453.221L417.273 318.91L415.615 318.634Z" fill="#3878FF"/>
<path d="M456.643 318.699L434.291 453.006L435.949 453.282L458.302 318.975L456.643 318.699Z" fill="#3878FF"/>
<path d="M452.685 346.507H411.329V348.188H452.685V346.507Z" fill="#3878FF"/>
<path d="M449.76 364.447H408.403V366.128H449.76V364.447Z" fill="#3878FF"/>
<path d="M446.835 382.37H405.478V384.051H446.835V382.37Z" fill="#3878FF"/>
<path d="M443.909 400.31H402.553V401.991H443.909V400.31Z" fill="#3878FF"/>
<path d="M440.984 418.25H399.628V419.931H440.984V418.25Z" fill="#3878FF"/>
<path d="M438.042 436.173H396.686V437.854H438.042V436.173Z" fill="#3878FF"/>
<path d="M463.545 316.714H413.111V321.758H463.545V316.714Z" fill="#0A5DE2"/>
<path d="M507.575 294.049L502.632 243.273L496.294 188.949L501.22 188.243L512.517 239.742L530.136 241.154L548.477 188.949L553.42 189.655L540.021 245.391L540.727 292.654L507.575 294.049Z" fill="#F7F5EF"/>
<path d="M513.845 224.677C512.517 229.536 514.619 237.354 519.477 238.683C524.336 240.011 530.136 234.362 531.481 229.502C532.043 227.189 531.681 224.748 530.472 222.698C529.263 220.647 527.303 219.149 525.007 218.521C522.711 217.892 520.261 218.184 518.177 219.334C516.093 220.483 514.539 222.4 513.845 224.677Z" fill="#F76D59"/>
<path d="M520.352 221.937C519.19 221.672 518.16 221.005 517.443 220.054C517.397 219.973 517.358 219.889 517.325 219.801C518.853 218.686 520.689 218.074 522.58 218.05C524.471 218.026 526.323 218.59 527.878 219.666C529.434 220.741 530.617 222.274 531.262 224.052C531.907 225.829 531.984 227.764 531.481 229.587C530.871 231.503 529.87 233.273 528.542 234.783C527.214 236.294 525.587 237.513 523.764 238.363C523.858 237.379 524.044 236.405 524.319 235.455C525.328 231.604 526.437 227.788 527.681 224.005C525.188 223.509 522.737 222.817 520.352 221.937Z" fill="#2B159B"/>
<path d="M526.034 229.301C526.356 229.044 526.739 228.876 527.145 228.811C527.552 228.746 527.968 228.787 528.354 228.931C528.529 228.999 528.69 229.102 528.825 229.234C529 229.424 529.129 229.651 529.202 229.899C529.275 230.147 529.289 230.408 529.245 230.663C529.148 231.368 528.847 232.029 528.377 232.564C527.908 233.099 527.292 233.485 526.606 233.672C526.231 233.817 525.826 233.863 525.429 233.807C525.227 233.782 525.033 233.717 524.857 233.616C524.681 233.515 524.527 233.38 524.403 233.218C523.563 232.025 525.093 229.99 526.034 229.301Z" fill="#F76D59"/>
<path d="M540.727 292.654L535.835 370.55H530.439L525.866 293.276L521.058 293.477L518.116 372.45L513.946 372.349L507.575 294.049L506.633 284.415L540.61 284.852L540.727 292.654Z" fill="#3878FF"/>
<path d="M535.835 370.55L547.67 371.845L547.25 373.694H529.901L530.438 370.55H535.835Z" fill="#3878FF"/>
<path d="M518.116 372.45V374.669L501.842 375.275V373.24L513.946 372.349L518.116 372.45Z" fill="#3878FF"/>
<path d="M522.588 231.268C519.612 231.587 517.258 228.611 514.299 228.225C514.118 228.174 513.926 228.174 513.745 228.225C513.538 228.356 513.379 228.551 513.291 228.78L512.164 230.965C511.756 231.695 511.445 232.475 511.24 233.286C511.045 235.078 511.293 236.891 511.963 238.565C512.644 239.835 513.778 240.801 515.14 241.272C516.493 241.719 517.927 241.868 519.343 241.709C520.315 241.656 521.268 241.416 522.15 241.003C523.103 240.497 523.877 239.712 524.37 238.754C524.863 237.795 525.051 236.708 524.908 235.639C524.779 235.123 524.717 234.592 524.723 234.059C524.815 233.549 525.01 233.063 525.294 232.63C525.58 232.109 527.547 229.553 526.017 229.536C525.546 229.536 524.874 230.326 524.47 230.562C523.9 230.929 523.258 231.169 522.588 231.268Z" fill="#2B159B"/>
<g opacity="0.4">
<path opacity="0.4" d="M542.156 206.939H549.267L553.42 189.655L548.477 188.949L542.156 206.939Z" fill="#AFC6F5"/>
<path opacity="0.4" d="M501.22 188.243L496.294 188.949L498.396 206.939H505.322L501.22 188.243Z" fill="#AFC6F5"/>
</g>
<path d="M621.843 133.33H457.409C449.341 133.33 442.8 139.872 442.8 147.941V172.421C442.8 180.491 449.341 187.032 457.409 187.032H621.843C629.911 187.032 636.452 180.491 636.452 172.421V147.941C636.452 139.872 629.911 133.33 621.843 133.33Z" fill="#3878FF"/>
<path d="M616.984 133.33H452.551C444.482 133.33 437.941 139.872 437.941 147.941V172.421C437.941 180.491 444.482 187.032 452.551 187.032H616.984C625.053 187.032 631.594 180.491 631.594 172.421V147.941C631.594 139.872 625.053 133.33 616.984 133.33Z" fill="#F7F5EF"/>
<path d="M619.338 174.624L611.453 166.453C613.43 164.111 614.547 161.165 614.621 158.101C614.695 155.038 613.721 152.041 611.86 149.607C609.999 147.173 607.363 145.447 604.388 144.715C601.413 143.984 598.277 144.29 595.499 145.583C592.722 146.876 590.469 149.079 589.114 151.827C587.759 154.576 587.382 157.704 588.047 160.695C588.712 163.686 590.378 166.361 592.769 168.276C595.161 170.192 598.135 171.233 601.198 171.228C603.944 171.241 606.625 170.394 608.865 168.806L616.816 177.079C616.977 177.252 617.172 177.389 617.389 177.482C617.607 177.575 617.841 177.621 618.077 177.617C618.301 177.62 618.524 177.579 618.732 177.495C618.94 177.411 619.129 177.287 619.288 177.129C619.458 176.972 619.594 176.781 619.688 176.568C619.781 176.355 619.829 176.125 619.829 175.893C619.829 175.661 619.781 175.431 619.688 175.219C619.594 175.006 619.458 174.815 619.288 174.658L619.338 174.624ZM601.198 147.958C603.157 147.958 605.071 148.539 606.7 149.627C608.328 150.715 609.597 152.262 610.347 154.071C611.096 155.881 611.292 157.872 610.91 159.793C610.528 161.714 609.585 163.479 608.2 164.863C606.815 166.248 605.051 167.192 603.13 167.574C601.209 167.956 599.218 167.76 597.409 167.01C595.6 166.261 594.053 164.991 592.965 163.363C591.877 161.734 591.296 159.82 591.296 157.861C591.296 155.234 592.34 152.716 594.197 150.858C596.054 149.001 598.572 147.958 601.198 147.958Z" fill="#AFC6F5"/>
<path opacity="0.5" d="M453.912 375.443H628.753" stroke="#0A5DE2" stroke-width="2" stroke-miterlimit="10" stroke-linecap="round"/>
<path d="M502.363 186.124C502.367 186.963 502.121 187.783 501.657 188.482C501.194 189.181 500.533 189.727 499.76 190.05C498.986 190.374 498.133 190.46 497.311 190.298C496.488 190.137 495.731 189.735 495.137 189.143C494.543 188.551 494.138 187.796 493.973 186.974C493.808 186.151 493.891 185.298 494.211 184.523C494.531 183.748 495.074 183.085 495.771 182.619C496.468 182.153 497.288 181.904 498.127 181.904C499.247 181.904 500.322 182.348 501.116 183.139C501.91 183.93 502.359 185.003 502.363 186.124Z" fill="#F76D59"/>
<path d="M553.454 187.335C553.454 188.173 553.205 188.993 552.738 189.69C552.272 190.387 551.609 190.93 550.834 191.251C550.059 191.571 549.207 191.654 548.384 191.489C547.562 191.324 546.807 190.919 546.215 190.325C545.624 189.73 545.221 188.974 545.06 188.151C544.898 187.328 544.985 186.475 545.308 185.702C545.631 184.928 546.177 184.267 546.876 183.804C547.574 183.34 548.395 183.094 549.234 183.098C549.789 183.098 550.339 183.207 550.853 183.421C551.366 183.634 551.832 183.946 552.224 184.34C552.616 184.733 552.926 185.201 553.137 185.714C553.348 186.228 553.456 186.779 553.454 187.335Z" fill="#F76D59"/>
<path d="M347.125 199.76C347.457 200.616 347.528 201.552 347.327 202.449C347.127 203.345 346.665 204.162 346 204.796C345.336 205.43 344.498 205.852 343.593 206.009C342.688 206.166 341.756 206.051 340.917 205.679C340.077 205.306 339.367 204.692 338.876 203.916C338.386 203.139 338.137 202.234 338.161 201.316C338.184 200.398 338.48 199.507 339.011 198.757C339.541 198.007 340.282 197.432 341.14 197.103C342.286 196.665 343.56 196.698 344.681 197.196C345.803 197.693 346.682 198.615 347.125 199.76Z" fill="#AFC6F5"/>
<path d="M279.105 182.752L272.147 222.38C270.958 229.148 275.481 235.598 282.248 236.786L321.872 243.745C328.639 244.934 335.088 240.411 336.277 233.643L343.235 194.015C344.423 187.247 339.901 180.797 333.134 179.609L293.51 172.65C286.743 171.461 280.293 175.984 279.105 182.752Z" fill="#3878FF"/>
<path d="M141.368 404.295H170.503C170.831 404.296 171.152 404.201 171.427 404.022C171.702 403.842 171.918 403.587 172.05 403.286C172.179 402.985 172.218 402.653 172.161 402.33C172.104 402.008 171.954 401.709 171.73 401.47L143.722 371.206L141.217 373.492L166.619 400.932H141.402L141.368 404.295Z" fill="#3878FF"/>
<path d="M346.066 200.264L358.574 205.157L394.937 208.604L382.799 217.162L357.246 211.025L344.183 205.039L346.066 200.264Z" fill="#D64536"/>
<path d="M390.028 194.749C390.749 196.635 390.895 198.691 390.448 200.659C390 202.627 388.979 204.419 387.513 205.806C386.048 207.194 384.204 208.116 382.215 208.456C380.225 208.796 378.18 208.538 376.337 207.715C374.494 206.892 372.937 205.541 371.862 203.833C370.786 202.125 370.242 200.137 370.296 198.119C370.351 196.102 371.003 194.145 372.169 192.498C373.335 190.851 374.963 189.587 376.848 188.865C378.1 188.385 379.434 188.157 380.774 188.194C382.113 188.23 383.433 188.53 384.657 189.076C385.881 189.623 386.985 190.405 387.907 191.379C388.829 192.352 389.549 193.497 390.028 194.749Z" fill="#AFC6F5"/>
<path d="M428.191 236.934L424.005 279.388L425.4 316.697H410.942L410.152 313.923L420.071 312.594L414.792 279.556L410.017 238.464L428.191 236.934Z" fill="url(#paint1_linear_0_420)"/>
<path d="M340.249 204.669C345.578 206.838 363.466 211.596 369.199 211.142L381.202 210.167L393.609 206.804L420.878 220.255L406.352 240.431L381.505 219.768L366.828 219.112C360.793 218.843 343.679 212.387 338.484 209.242L340.249 204.669Z" fill="#F76D59"/>
<path d="M391.575 192.143C389.457 187.335 380.916 186.175 376.176 188.411C375.89 188.545 375.638 188.73 375.369 188.882C375.437 189.649 375.666 190.394 376.041 191.067C376.786 192.202 377.777 193.153 378.942 193.849C380.107 194.545 381.414 194.968 382.766 195.086C382.766 195.086 382.967 195.607 383.27 196.431C383.56 196.081 383.929 195.804 384.346 195.624C385.099 195.371 385.913 195.371 386.666 195.624C389.121 196.313 389.104 199.76 387.423 201.223C386.863 201.687 386.218 202.035 385.523 202.248H385.271C385.052 205.611 385.271 205.93 385.977 206.956C389.894 204.115 394.383 198.482 391.575 192.143Z" fill="#1F1F89"/>
<path d="M472.691 231.302L448.314 241.928L420.205 220.339L405.798 240.095L448.28 253.142L473.431 236.278L478.777 242.247L480.592 240.499L472.691 231.302Z" fill="#3878FF"/>
<path d="M341.745 204.518C342.074 205.375 342.142 206.311 341.939 207.206C341.736 208.102 341.272 208.917 340.605 209.549C339.939 210.18 339.1 210.6 338.195 210.755C337.29 210.909 336.36 210.792 335.521 210.418C334.683 210.043 333.975 209.428 333.486 208.651C332.997 207.874 332.75 206.969 332.775 206.051C332.801 205.133 333.098 204.244 333.63 203.495C334.161 202.746 334.903 202.172 335.761 201.845C336.909 201.411 338.182 201.449 339.303 201.95C340.424 202.45 341.302 203.373 341.745 204.518Z" fill="#AFC6F5"/>
<path d="M139.855 87.2446H172.756V417.913H139.855V87.2446ZM169.393 90.6073H143.218V414.551H169.393V90.6073Z" fill="#3878FF"/>
<path d="M135.367 430.238H177.261V400.209H135.367V430.238Z" fill="#F7F5EF"/>
<path d="M141.368 280.027H170.503C170.831 280.028 171.152 279.933 171.427 279.754C171.702 279.575 171.918 279.319 172.05 279.018C172.179 278.717 172.218 278.385 172.161 278.063C172.104 277.74 171.954 277.441 171.73 277.202L143.722 246.938L141.217 249.225L166.619 276.664H141.402L141.368 280.027Z" fill="#3878FF"/>
<path d="M141.368 311.048H170.503C170.83 311.047 171.149 310.95 171.422 310.771C171.695 310.591 171.909 310.336 172.039 310.036C172.17 309.737 172.21 309.406 172.155 309.084C172.1 308.762 171.952 308.463 171.73 308.223L143.722 277.959L141.217 280.296L166.653 307.685H141.436L141.368 311.048Z" fill="#3878FF"/>
<path d="M141.368 342.169H170.503C170.83 342.168 171.149 342.072 171.422 341.892C171.695 341.713 171.909 341.458 172.039 341.158C172.17 340.858 172.21 340.527 172.155 340.205C172.1 339.883 171.952 339.584 171.73 339.345L143.722 309.081L141.217 311.367L166.619 338.807H141.402L141.368 342.169Z" fill="#3878FF"/>
<path d="M141.368 373.257H170.503C170.831 373.258 171.152 373.163 171.427 372.984C171.702 372.805 171.918 372.549 172.05 372.248C172.179 371.947 172.218 371.615 172.161 371.293C172.104 370.97 171.954 370.671 171.73 370.433L143.722 340.168L141.217 342.421L166.653 369.895H141.436L141.368 373.257Z" fill="#3878FF"/>
<path d="M141.368 249.712H170.503C170.83 249.711 171.149 249.615 171.422 249.435C171.695 249.256 171.909 249.001 172.039 248.701C172.17 248.401 172.21 248.07 172.155 247.748C172.1 247.426 171.952 247.127 171.73 246.888L143.722 216.624L141.217 218.91L166.619 246.35H141.402L141.368 249.712Z" fill="#3878FF"/>
<path d="M141.368 219.33H170.503C170.831 219.332 171.152 219.237 171.427 219.057C171.702 218.878 171.918 218.622 172.05 218.322C172.179 218.021 172.218 217.689 172.161 217.366C172.104 217.043 171.954 216.744 171.73 216.506L143.722 186.242L141.217 188.528L166.619 215.968H141.402L141.368 219.33Z" fill="#3878FF"/>
<path d="M141.368 189.016H170.503C170.83 189.015 171.149 188.919 171.422 188.739C171.695 188.56 171.909 188.304 172.039 188.005C172.17 187.705 172.21 187.374 172.155 187.052C172.1 186.73 171.952 186.431 171.73 186.191L143.722 155.927L141.217 158.214L166.619 185.653H141.402L141.368 189.016Z" fill="#3878FF"/>
<path d="M141.368 158.685H170.503C170.831 158.686 171.152 158.591 171.427 158.412C171.702 158.232 171.918 157.977 172.05 157.676C172.179 157.375 172.218 157.043 172.161 156.72C172.104 156.398 171.954 156.099 171.73 155.86L143.722 125.596L141.217 127.883L166.653 155.322H141.436L141.368 158.685Z" fill="#3878FF"/>
<path d="M141.368 128.37H170.503C170.83 128.369 171.149 128.273 171.422 128.093C171.695 127.914 171.909 127.659 172.039 127.359C172.17 127.059 172.21 126.728 172.155 126.406C172.1 126.084 171.952 125.785 171.73 125.546L143.722 95.2815L141.217 97.5177L166.653 125.008H141.436L141.368 128.37Z" fill="#3878FF"/>
<path d="M141.368 98.0387H170.503C170.831 98.0398 171.152 97.9449 171.427 97.7657C171.702 97.5864 171.918 97.3306 172.05 97.0299C172.179 96.729 172.218 96.3969 172.161 96.0743C172.104 95.7517 171.954 95.4527 171.73 95.214L143.722 64.95L141.217 67.2534L166.653 94.676H141.436L141.368 98.0387Z" fill="#3878FF"/>
<path d="M139.906 98.644H193.232V53.6851L139.906 53.6851V98.644Z" fill="#1F1F89"/>
<path d="M59.7819 79.5105H113.108V53.6852L59.7819 53.6852V79.5105Z" fill="#1F1F89"/>
<path d="M60.673 56.9638H324.043C324.489 56.9638 324.916 56.7866 325.232 56.4713C325.547 56.156 325.724 55.7283 325.724 55.2824C325.724 54.8365 325.547 54.4088 325.232 54.0935C324.916 53.7782 324.489 53.6011 324.043 53.6011H60.673C60.2271 53.6011 59.7995 53.7782 59.4842 54.0935C59.1689 54.4088 58.9918 54.8365 58.9918 55.2824C58.9918 55.7283 59.1689 56.156 59.4842 56.4713C59.7995 56.7866 60.2271 56.9638 60.673 56.9638Z" fill="#3878FF"/>
<path d="M311.804 63.1343H310.123V172.421H311.804V63.1343Z" fill="#3878FF"/>
<path d="M121.077 438.073H191.551V424.857H121.077V438.073Z" fill="#3878FF"/>
<path d="M166.435 56.5265C166.653 56.5244 166.863 56.4404 167.023 56.2911L181.077 42.2351H309.82L322.984 55.4841C323.141 55.6381 323.352 55.7244 323.572 55.7244C323.792 55.7244 324.003 55.6381 324.161 55.4841C324.239 55.4059 324.302 55.3129 324.345 55.2105C324.387 55.108 324.409 54.9982 324.409 54.8872C324.409 54.7762 324.387 54.6663 324.345 54.5639C324.302 54.4614 324.239 54.3685 324.161 54.2903L310.476 40.5874H180.321L165.796 55.131C165.68 55.2485 165.602 55.3972 165.571 55.5587C165.539 55.7202 165.556 55.8875 165.619 56.0396C165.681 56.1918 165.787 56.3222 165.923 56.4147C166.059 56.5072 166.22 56.5578 166.384 56.5601L166.435 56.5265Z" fill="#3878FF"/>
<path d="M59.5465 56.5265C59.6981 56.5288 59.8474 56.4892 59.9779 56.4121C60.1084 56.3349 60.2151 56.2233 60.2862 56.0894L74.3407 29.188H108.435L121.648 55.1983C121.749 55.3963 121.924 55.5463 122.135 55.6157C122.346 55.685 122.576 55.6679 122.775 55.5682C122.97 55.4642 123.117 55.289 123.186 55.0792C123.255 54.8693 123.24 54.641 123.145 54.4417L109.46 27.5403H73.332L58.8404 55.2992C58.7878 55.3973 58.7552 55.5048 58.7445 55.6156C58.7338 55.7264 58.7452 55.8383 58.778 55.9446C58.8109 56.051 58.8645 56.1498 58.9358 56.2352C59.0071 56.3207 59.0947 56.3911 59.1935 56.4425C59.3028 56.4981 59.4238 56.5269 59.5465 56.5265Z" fill="#3878FF"/>
<path d="M304.81 63.1344C304.807 64.3541 305.165 65.5474 305.84 66.5636C306.514 67.5798 307.475 68.3733 308.6 68.8438C309.725 69.3144 310.964 69.441 312.161 69.2075C313.358 68.974 314.459 68.391 315.325 67.5321C316.191 66.6731 316.783 65.5769 317.026 64.3817C317.269 63.1865 317.153 61.946 316.692 60.8169C316.23 59.6879 315.445 58.7209 314.434 58.0381C313.424 57.3553 312.233 56.9873 311.014 56.9807C310.202 56.974 309.396 57.1283 308.644 57.4345C307.891 57.7408 307.207 58.193 306.63 58.7651C306.054 59.3372 305.596 60.0178 305.284 60.7677C304.971 61.5177 304.81 62.322 304.81 63.1344Z" fill="#F7F5EF"/>
<path d="M274.533 42.2353C274.756 42.2665 274.982 42.2079 275.162 42.0723C275.341 41.9367 275.46 41.7353 275.491 41.5123C275.522 41.2894 275.464 41.0631 275.328 40.8834C275.193 40.7037 274.991 40.5852 274.768 40.554L150.363 2.58935C150.177 2.53011 149.977 2.53011 149.791 2.58935L90.7825 27.5572C90.6767 27.5973 90.5801 27.6583 90.4984 27.7367C90.4168 27.815 90.3518 27.909 90.3074 28.013C90.2629 28.1171 90.2399 28.229 90.2397 28.3421C90.2396 28.4553 90.2623 28.5673 90.3064 28.6715C90.3506 28.7756 90.4153 28.8698 90.4967 28.9484C90.5781 29.0269 90.6746 29.0882 90.7802 29.1286C90.8859 29.169 90.9986 29.1877 91.1117 29.1834C91.2247 29.1792 91.3358 29.1522 91.4381 29.1041L150.111 4.32113L274.281 42.1849C274.361 42.2177 274.446 42.2349 274.533 42.2353Z" fill="#3878FF"/>
<path d="M169.646 56.6442C169.853 56.646 170.059 56.6059 170.251 56.5265C170.665 56.365 170.998 56.0462 171.177 55.6397C171.357 55.2333 171.368 54.7724 171.209 54.3576L151.624 2.79093C151.495 2.45548 151.262 2.17002 150.96 1.97638C150.657 1.78273 150.301 1.69109 149.942 1.71487C149.578 1.74426 149.234 1.89143 148.961 2.13411C148.688 2.3768 148.501 2.70179 148.429 3.05994L138.342 53.3488C138.298 53.5696 138.298 53.7969 138.342 54.0178C138.385 54.2387 138.472 54.4488 138.597 54.6361C138.722 54.8235 138.882 54.9844 139.07 55.1097C139.257 55.235 139.467 55.3222 139.687 55.3664C139.908 55.4105 140.135 55.4108 140.356 55.3671C140.577 55.3234 140.787 55.2366 140.975 55.1117C141.162 54.9868 141.323 54.8262 141.448 54.6391C141.573 54.452 141.661 54.2421 141.705 54.0213L150.548 9.43221L168.116 55.5681C168.235 55.8788 168.445 56.147 168.717 56.3386C168.99 56.5301 169.313 56.6365 169.646 56.6442Z" fill="#3878FF"/>
<path d="M146.664 3.36268C146.664 4.02775 146.861 4.67789 147.231 5.23088C147.6 5.78387 148.125 6.21487 148.74 6.46938C149.354 6.7239 150.03 6.79049 150.682 6.66074C151.335 6.53099 151.934 6.21073 152.404 5.74045C152.874 5.27017 153.194 4.671 153.324 4.0187C153.454 3.36641 153.387 2.69028 153.133 2.07584C152.878 1.46139 152.447 0.936209 151.894 0.566713C151.341 0.197218 150.691 0 150.026 0C149.135 0 148.279 0.354281 147.649 0.984905C147.018 1.61553 146.664 2.47084 146.664 3.36268Z" fill="#BCCCFD"/>
<path d="M292.252 56.6947C292.442 56.6923 292.625 56.6273 292.773 56.5097L309.333 43.1599V55.6355C309.333 55.8584 309.421 56.0722 309.579 56.2299C309.737 56.3875 309.95 56.4761 310.173 56.4761C310.396 56.4761 310.61 56.3875 310.768 56.2299C310.925 56.0722 311.014 55.8584 311.014 55.6355V41.3945C311.013 41.2352 310.966 41.0794 310.88 40.9455C310.794 40.8115 310.671 40.7048 310.526 40.6379C310.386 40.5704 310.229 40.544 310.075 40.5618C309.92 40.5797 309.773 40.641 309.652 40.7388L291.765 55.1983C291.678 55.2668 291.606 55.352 291.554 55.4488C291.501 55.5457 291.468 55.6521 291.457 55.7619C291.446 55.8716 291.457 55.9825 291.49 56.0878C291.522 56.1932 291.576 56.2909 291.647 56.3752C291.721 56.4672 291.812 56.543 291.916 56.598C292.021 56.6529 292.135 56.6859 292.252 56.6947Z" fill="#3878FF"/>
<path d="M276.281 56.6948C276.471 56.6925 276.654 56.6274 276.802 56.5099L293.311 43.1601V55.6356C293.311 55.8586 293.4 56.0724 293.558 56.23C293.715 56.3877 293.929 56.4763 294.152 56.4763C294.375 56.4763 294.589 56.3877 294.746 56.23C294.904 56.0724 294.993 55.8586 294.993 55.6356V41.3947C294.992 41.2371 294.947 41.0829 294.863 40.9496C294.778 40.8164 294.659 40.7095 294.517 40.6411C294.375 40.5727 294.216 40.5456 294.06 40.5629C293.903 40.5802 293.754 40.6412 293.631 40.7389L275.71 55.1985C275.536 55.3372 275.425 55.5387 275.4 55.7592C275.375 55.9797 275.438 56.2012 275.575 56.3754C275.659 56.4803 275.767 56.564 275.89 56.6195C276.013 56.675 276.147 56.7008 276.281 56.6948Z" fill="#3878FF"/>
<path d="M260.31 56.6947C260.505 56.6947 260.695 56.6297 260.848 56.5097L277.391 43.1599V55.6354C277.391 55.8584 277.479 56.0722 277.637 56.2299C277.795 56.3875 278.008 56.4761 278.231 56.4761C278.454 56.4761 278.668 56.3875 278.826 56.2299C278.983 56.0722 279.072 55.8584 279.072 55.6354V41.3945C279.071 41.2352 279.024 41.0794 278.938 40.9455C278.852 40.8115 278.729 40.7048 278.584 40.6379C278.441 40.5708 278.282 40.5448 278.125 40.5626C277.967 40.5804 277.818 40.6414 277.693 40.7388L259.823 55.1983C259.736 55.2668 259.665 55.352 259.612 55.4488C259.559 55.5457 259.526 55.6521 259.515 55.7619C259.504 55.8716 259.515 55.9825 259.548 56.0878C259.58 56.1932 259.634 56.2909 259.705 56.3752C259.777 56.4687 259.869 56.5457 259.973 56.6008C260.077 56.6559 260.192 56.6879 260.31 56.6947Z" fill="#3878FF"/>
<path d="M244.356 56.6949C244.545 56.6925 244.729 56.6274 244.877 56.5099L261.386 43.1601V55.6356C261.386 55.8586 261.475 56.0724 261.632 56.2301C261.79 56.3877 262.004 56.4763 262.227 56.4763C262.45 56.4763 262.664 56.3877 262.821 56.2301C262.979 56.0724 263.067 55.8586 263.067 55.6356V41.3947C263.067 41.2371 263.022 41.0829 262.937 40.9496C262.853 40.8164 262.733 40.7095 262.591 40.6411C262.449 40.5727 262.291 40.5456 262.135 40.5629C261.978 40.5802 261.829 40.6412 261.706 40.7389L243.768 55.1985C243.631 55.308 243.532 55.4576 243.485 55.6261C243.437 55.7947 243.443 55.9739 243.503 56.1387C243.562 56.3035 243.671 56.4457 243.815 56.5454C243.959 56.6451 244.131 56.6974 244.306 56.6949H244.356Z" fill="#3878FF"/>
<path d="M228.385 56.6947C228.58 56.6923 228.768 56.6274 228.923 56.5097L245.449 43.1599V55.6354C245.449 55.8584 245.537 56.0722 245.695 56.2299C245.853 56.3875 246.067 56.4761 246.289 56.4761C246.512 56.4761 246.726 56.3875 246.884 56.2299C247.041 56.0722 247.13 55.8584 247.13 55.6354V41.3945C247.129 41.2352 247.082 41.0794 246.996 40.9455C246.91 40.8115 246.787 40.7048 246.643 40.6379C246.499 40.5708 246.34 40.5448 246.183 40.5626C246.025 40.5804 245.876 40.6414 245.751 40.7388L227.881 55.1983C227.745 55.307 227.647 55.455 227.599 55.6219C227.551 55.7888 227.556 55.9665 227.613 56.1306C227.67 56.2946 227.777 56.4369 227.918 56.5379C228.059 56.6389 228.228 56.6937 228.402 56.6947H228.385Z" fill="#3878FF"/>
<path d="M212.431 56.6949C212.62 56.6925 212.804 56.6274 212.952 56.5099L229.461 43.1601V55.6356C229.461 55.8586 229.55 56.0724 229.707 56.2301C229.865 56.3877 230.079 56.4763 230.302 56.4763C230.525 56.4763 230.738 56.3877 230.896 56.2301C231.054 56.0724 231.142 55.8586 231.142 55.6356V41.3947C231.142 41.2371 231.096 41.0829 231.012 40.9496C230.928 40.8164 230.808 40.7095 230.666 40.6411C230.524 40.5727 230.366 40.5456 230.209 40.5629C230.053 40.5802 229.904 40.6412 229.78 40.7389L211.826 55.1985C211.689 55.308 211.59 55.4576 211.543 55.6261C211.495 55.7947 211.501 55.9739 211.561 56.1387C211.62 56.3035 211.729 56.4457 211.873 56.5454C212.017 56.6451 212.189 56.6974 212.364 56.6949H212.431Z" fill="#3878FF"/>
<path d="M196.46 56.6947C196.654 56.69 196.842 56.6254 196.998 56.5097L213.507 43.1599V55.6354C213.507 55.8584 213.595 56.0722 213.753 56.2299C213.911 56.3875 214.125 56.4761 214.348 56.4761C214.57 56.4761 214.784 56.3875 214.942 56.2299C215.1 56.0722 215.188 55.8584 215.188 55.6354V41.3945C215.187 41.2352 215.14 41.0794 215.054 40.9455C214.968 40.8115 214.845 40.7048 214.701 40.6379C214.557 40.5708 214.398 40.5448 214.241 40.5626C214.084 40.5804 213.934 40.6414 213.81 40.7388L195.939 55.1983C195.766 55.337 195.654 55.5386 195.629 55.7591C195.604 55.9795 195.667 56.201 195.804 56.3752C195.884 56.4725 195.984 56.5515 196.097 56.6066C196.21 56.6617 196.334 56.6918 196.46 56.6947Z" fill="#3878FF"/>
<path d="M180.506 56.6949C180.695 56.6925 180.878 56.6274 181.027 56.5099L197.536 43.1601V55.6356C197.536 55.8586 197.624 56.0724 197.782 56.2301C197.94 56.3877 198.154 56.4763 198.376 56.4763C198.599 56.4763 198.813 56.3877 198.971 56.2301C199.128 56.0724 199.217 55.8586 199.217 55.6356V41.3947C199.216 41.2371 199.171 41.0829 199.087 40.9496C199.003 40.8164 198.883 40.7095 198.741 40.6411C198.599 40.5727 198.441 40.5456 198.284 40.5629C198.128 40.5802 197.979 40.6412 197.855 40.7389L179.968 55.1985C179.831 55.308 179.732 55.4576 179.685 55.6261C179.637 55.7947 179.643 55.9739 179.703 56.1387C179.762 56.3035 179.871 56.4457 180.015 56.5454C180.159 56.6451 180.331 56.6974 180.506 56.6949Z" fill="#3878FF"/>
<path d="M86.1257 56.6949C86.2506 56.6963 86.3742 56.6699 86.4877 56.6175C86.6011 56.5652 86.7014 56.4882 86.7813 56.3922L108.216 31.1721V55.7197C108.216 55.9426 108.305 56.1565 108.462 56.3141C108.62 56.4718 108.834 56.5603 109.057 56.5603C109.28 56.5603 109.493 56.4718 109.651 56.3141C109.809 56.1565 109.897 55.9426 109.897 55.7197V28.8183C109.897 28.6455 109.844 28.4769 109.745 28.3356C109.645 28.1942 109.505 28.0868 109.342 28.028C109.183 27.9639 109.008 27.9521 108.842 27.9944C108.675 28.0368 108.527 28.131 108.418 28.2634L85.4868 55.3162C85.385 55.4385 85.3199 55.5872 85.2992 55.745C85.2786 55.9028 85.3031 56.0633 85.37 56.2077C85.4369 56.3521 85.5435 56.4746 85.6773 56.5608C85.811 56.647 85.9665 56.6935 86.1257 56.6949Z" fill="#3878FF"/>
<path d="M69.6335 56.6946C69.7747 56.6976 69.9143 56.6634 70.0382 56.5956C70.1621 56.5277 70.266 56.4285 70.3396 56.3079L86.6804 31.5922V55.6353C86.6804 55.8583 86.769 56.0721 86.9266 56.2298C87.0843 56.3874 87.2981 56.476 87.521 56.476C87.7439 56.476 87.9577 56.3874 88.1154 56.2298C88.273 56.0721 88.3616 55.8583 88.3616 55.6353V28.7339C88.3648 28.5512 88.3084 28.3724 88.2009 28.2246C88.0934 28.0768 87.9407 27.9681 87.7659 27.9148C87.5911 27.8616 87.4037 27.8668 87.2321 27.9297C87.0605 27.9925 86.914 28.1096 86.8149 28.2632L68.9274 55.3831C68.8049 55.5711 68.7609 55.7996 68.8049 56.0197C68.8489 56.2397 68.9774 56.4337 69.1628 56.5601C69.304 56.648 69.4671 56.6946 69.6335 56.6946Z" fill="#3878FF"/>
<path d="M305.685 174.674C305.685 175.722 305.996 176.747 306.578 177.618C307.161 178.49 307.989 179.168 308.958 179.569C309.926 179.969 310.992 180.073 312.02 179.867C313.047 179.662 313.991 179.156 314.731 178.413C315.471 177.671 315.974 176.726 316.176 175.697C316.379 174.669 316.271 173.603 315.868 172.636C315.465 171.668 314.783 170.842 313.91 170.262C313.037 169.682 312.012 169.375 310.964 169.378C309.562 169.382 308.219 169.942 307.23 170.935C306.24 171.928 305.685 173.272 305.685 174.674Z" fill="#1F1F89"/>
<path opacity="0.5" d="M90.7824 439.334H218.55" stroke="#0A5DE2" stroke-width="2" stroke-miterlimit="10" stroke-linecap="round"/>
<path d="M622.633 493.691L620.733 467.345L623.675 447.942L633.678 390.76L628.853 390.07L617.791 440.494L600.526 441.889L582.571 390.76L577.729 391.449L590.859 446.025L595.466 466.891L594.928 492.312L622.633 493.691Z" fill="#F3D038"/>
<path d="M598.828 423.226L597.13 438.308L607.385 439.115L613.656 423.226H598.828Z" fill="#1F1F89"/>
<path d="M617.758 428.741C617.761 430.794 617.156 432.801 616.018 434.509C614.88 436.218 613.261 437.55 611.366 438.338C609.471 439.125 607.385 439.333 605.372 438.935C603.359 438.536 601.509 437.55 600.056 436.1C598.604 434.649 597.614 432.801 597.213 430.788C596.811 428.775 597.016 426.689 597.8 424.792C598.585 422.896 599.914 421.274 601.621 420.134C603.327 418.993 605.333 418.384 607.385 418.384C608.746 418.382 610.095 418.648 611.353 419.168C612.612 419.687 613.755 420.45 614.719 421.412C615.682 422.374 616.446 423.516 616.968 424.774C617.489 426.032 617.758 427.38 617.758 428.741Z" fill="#F7F5EF"/>
<path d="M626.55 327.037H586.32C579.449 327.037 573.88 332.608 573.88 339.479V379.713C573.88 386.585 579.449 392.155 586.32 392.155H626.55C633.421 392.155 638.991 386.585 638.991 379.713V339.479C638.991 332.608 633.421 327.037 626.55 327.037Z" fill="#0A5DE2"/>
<path d="M611.201 428.069C611.295 428.13 611.4 428.17 611.51 428.188C611.62 428.205 611.733 428.199 611.84 428.17C612.059 428.17 612.159 427.867 612.294 427.699C612.607 427.396 613.026 427.226 613.462 427.226C613.898 427.226 614.317 427.396 614.631 427.699C614.929 428.027 615.116 428.442 615.164 428.883C615.212 429.324 615.12 429.768 614.9 430.154C614.663 430.53 614.346 430.849 613.971 431.088C613.596 431.326 613.172 431.478 612.731 431.532C612.159 433.588 611.926 435.723 612.042 437.854L616.312 438.174C616.583 438.224 616.863 438.176 617.102 438.039C617.295 437.858 617.415 437.613 617.438 437.35C617.978 434.904 618.243 432.406 618.228 429.901C618.359 427.457 617.824 425.022 616.682 422.857C615.186 420.368 609.016 416.266 606.006 418.569C602.678 421.024 608.898 426.959 611.201 428.069Z" fill="#1F1F89"/>
<path d="M602.611 424.504C600.91 426.306 598.606 427.419 596.138 427.632C596.088 426.259 596.346 424.893 596.893 423.633C597.44 422.373 598.262 421.252 599.299 420.351C600.475 419.343 604.342 417.123 606.023 418.199C607.704 419.275 603.804 423.344 602.611 424.504Z" fill="#1F1F89"/>
<path d="M621.624 474.995L595.197 473.768L574.872 564.812L565.457 559.062L576.923 573.017L603.989 497.962L603.586 532.009L621.927 556.321L623.104 565.098L623.591 568.831L626.853 568.427L627.458 555.06L613.252 531.959L623.272 493.725L621.624 474.995Z" fill="#0A5DE2"/>
<path d="M623.289 415.425L629.005 417.426L633.678 390.76L628.853 390.07L623.289 415.425Z" fill="#F7F5EF"/>
<path d="M589.985 411.861L583.277 414.517L577.729 391.449L582.571 390.76L589.985 411.861Z" fill="#F7F5EF"/>
<path d="M612.395 440.931L607.435 449.741L604.93 441.536L612.395 440.931Z" fill="#F7F5EF"/>
<path d="M575.561 388.003C575.561 388.824 575.804 389.627 576.261 390.31C576.717 390.993 577.365 391.525 578.124 391.839C578.883 392.154 579.718 392.236 580.523 392.076C581.329 391.915 582.069 391.52 582.649 390.939C583.23 390.358 583.626 389.618 583.786 388.813C583.946 388.007 583.864 387.172 583.55 386.413C583.235 385.654 582.703 385.006 582.02 384.549C581.337 384.093 580.534 383.85 579.713 383.85C578.612 383.85 577.556 384.287 576.777 385.066C575.998 385.845 575.561 386.901 575.561 388.003Z" fill="#F7F5EF"/>
<path d="M627.593 388.776C627.593 389.597 627.836 390.4 628.292 391.083C628.749 391.766 629.397 392.298 630.156 392.613C630.915 392.927 631.75 393.009 632.555 392.849C633.361 392.689 634.101 392.293 634.681 391.712C635.262 391.132 635.658 390.392 635.818 389.586C635.978 388.781 635.896 387.946 635.581 387.187C635.267 386.428 634.735 385.779 634.052 385.323C633.369 384.867 632.566 384.623 631.745 384.623C631.2 384.623 630.66 384.73 630.156 384.939C629.652 385.148 629.194 385.454 628.809 385.839C628.423 386.225 628.117 386.683 627.909 387.187C627.7 387.691 627.593 388.231 627.593 388.776Z" fill="#F7F5EF"/>
<path d="M596.542 518.609L602.93 500.904L603.535 495.289L595.129 473.768L586.303 513.313C590.086 515.33 593.835 517.23 596.542 518.609Z" fill="url(#paint2_linear_0_420)"/>
<path d="M614.799 348.508C614.799 350.194 614.299 351.842 613.363 353.244C612.426 354.645 611.095 355.738 609.537 356.383C607.98 357.028 606.266 357.197 604.613 356.868C602.959 356.539 601.441 355.728 600.249 354.535C599.057 353.343 598.245 351.824 597.916 350.171C597.587 348.517 597.756 346.803 598.401 345.246C599.046 343.688 600.139 342.357 601.54 341.42C602.942 340.483 604.59 339.983 606.276 339.983C608.536 339.983 610.704 340.881 612.303 342.48C613.901 344.079 614.799 346.247 614.799 348.508Z" fill="#F7F5EF"/>
<path d="M623.037 374.367C623.037 370.037 621.317 365.884 618.255 362.823C615.194 359.761 611.042 358.041 606.713 358.041C602.383 358.041 598.231 359.761 595.17 362.823C592.108 365.884 590.388 370.037 590.388 374.367H623.037Z" fill="#F7F5EF"/>
<path opacity="0.5" d="M541.551 571.319H669.319" stroke="#0A5DE2" stroke-width="2" stroke-miterlimit="10" stroke-linecap="round"/>
<path opacity="0.5" d="M370.073 452.784H497.841" stroke="#0A5DE2" stroke-width="2" stroke-miterlimit="10" stroke-linecap="round"/>
<path d="M238.203 244.652H197.973C191.102 244.652 185.532 250.222 185.532 257.094V297.328C185.532 304.199 191.102 309.77 197.973 309.77H238.203C245.074 309.77 250.644 304.199 250.644 297.328V257.094C250.644 250.222 245.074 244.652 238.203 244.652Z" fill="#0A5DE2"/>
<path d="M201.117 415.459L196.225 365.018L189.92 311.081L194.812 310.375L206.026 361.521L223.527 362.917L241.75 311.081L246.642 311.787L233.345 367.12L234.034 414.063L201.117 415.459Z" fill="#F7F5EF"/>
<path d="M197.62 308.29C197.62 309.122 197.373 309.934 196.912 310.626C196.45 311.317 195.793 311.856 195.025 312.174C194.257 312.492 193.412 312.575 192.597 312.413C191.782 312.251 191.033 311.85 190.445 311.262C189.857 310.675 189.457 309.926 189.295 309.11C189.133 308.295 189.216 307.45 189.534 306.682C189.852 305.914 190.391 305.257 191.082 304.795C191.773 304.333 192.586 304.087 193.417 304.087C194.532 304.087 195.601 304.53 196.389 305.318C197.177 306.106 197.62 307.175 197.62 308.29Z" fill="#F76D59"/>
<path d="M246.642 309.686C246.642 310.517 246.396 311.33 245.934 312.021C245.472 312.712 244.816 313.251 244.048 313.569C243.28 313.887 242.435 313.971 241.62 313.808C240.804 313.646 240.055 313.246 239.468 312.658C238.88 312.07 238.48 311.321 238.317 310.506C238.155 309.69 238.239 308.845 238.557 308.077C238.875 307.309 239.413 306.653 240.105 306.191C240.796 305.729 241.608 305.482 242.44 305.482C243.554 305.482 244.623 305.925 245.411 306.714C246.2 307.502 246.642 308.571 246.642 309.686Z" fill="#F76D59"/>
<path d="M225.863 346.187C225.867 348.303 225.242 350.372 224.07 352.133C222.897 353.894 221.228 355.267 219.275 356.079C217.321 356.891 215.171 357.105 213.096 356.694C211.02 356.284 209.114 355.266 207.617 353.772C206.12 352.277 205.1 350.371 204.686 348.297C204.272 346.222 204.483 344.071 205.291 342.116C206.1 340.161 207.471 338.49 209.229 337.314C210.988 336.139 213.056 335.511 215.171 335.511C218.004 335.511 220.721 336.635 222.726 338.637C224.73 340.639 225.859 343.354 225.863 346.187Z" fill="#F76D59"/>
<path d="M225.863 347.869C225.867 349.985 225.242 352.054 224.07 353.814C222.897 355.575 221.228 356.948 219.275 357.76C217.321 358.572 215.171 358.786 213.096 358.376C211.02 357.965 209.114 356.948 207.617 355.453C206.12 353.958 205.1 352.053 204.686 349.978C204.272 347.903 204.483 345.752 205.291 343.797C206.1 341.843 207.471 340.171 209.229 338.996C210.988 337.82 213.056 337.192 215.171 337.192C218.004 337.192 220.721 338.317 222.726 340.318C224.73 342.32 225.859 345.036 225.863 347.869Z" fill="#1F1F89"/>
<path d="M234.034 414.063L229.175 491.421H223.829L219.29 414.685L214.499 414.887L211.59 493.305L207.455 493.221L201.117 415.459L200.192 405.875L233.916 406.312L234.034 414.063Z" fill="#3878FF"/>
<path d="M229.175 491.422L240.943 492.716L240.523 494.532H223.291L223.829 491.422H229.175Z" fill="#3878FF"/>
<path d="M211.59 493.305V495.507L195.418 496.113V494.095L207.455 493.221L211.59 493.305Z" fill="#3878FF"/>
<path opacity="0.5" d="M176.74 495.658H270.885" stroke="#0A5DE2" stroke-width="2" stroke-miterlimit="10" stroke-linecap="round"/>
<path d="M360.49 514.22C360.508 514.349 360.508 514.479 360.49 514.607C360.49 514.607 360.49 514.607 360.49 514.708C360.458 514.812 360.419 514.913 360.373 515.011L360.121 515.364V515.448L359.801 515.767C359.656 515.887 359.504 516 359.347 516.104L359.196 516.188C359.062 516.281 358.921 516.366 358.776 516.44L358.591 516.541L358.07 516.793L357.868 516.877L357.027 517.196L328.363 527.133L327.489 527.369C327.069 527.486 326.665 527.621 326.212 527.722C325.758 527.822 325.085 527.94 324.53 528.024C323.976 528.108 323.808 528.125 323.438 528.176L322.076 528.31H321.807C321.067 528.31 320.328 528.394 319.571 528.394C318.798 528.394 318.008 528.394 317.251 528.394C316.478 528.394 315.721 528.276 314.981 528.176C314.259 528.075 313.569 527.94 312.914 527.806C312.265 527.663 311.625 527.483 310.997 527.268L282.77 517.6L282.317 517.432L281.93 517.281L281.543 517.112L281.19 516.944L280.904 516.776L280.585 516.591L280.35 516.406L280.081 516.204L279.879 516.02L279.694 515.835L279.509 515.582L279.408 515.431V515.229C279.324 515.038 279.278 514.833 279.274 514.624L279.375 527.251C279.379 527.459 279.425 527.665 279.509 527.856V528.058L279.61 528.209L279.795 528.461L279.963 528.613L280.182 528.848L280.366 528.983L280.686 529.218L280.921 529.353C281.046 529.433 281.175 529.506 281.308 529.571L281.56 529.689L282.031 529.907L282.35 530.042L282.855 530.227L311.081 539.894C311.405 540.015 311.737 540.116 312.073 540.197L312.93 540.416H312.695L313.368 540.55L314.124 540.685L314.763 540.786H314.881L315.62 540.87H316.377H317.083H317.873H320.361H321.303H321.672H321.941H322.479L323.303 540.769L324.396 540.634H324.699L325.926 540.399H326.077C326.548 540.298 326.968 540.164 327.388 540.046L328.061 539.861H328.246L356.91 529.941C357.195 529.84 357.464 529.739 357.716 529.622L357.918 529.537L358.355 529.336H358.439L358.624 529.235L358.876 529.1L359.045 528.983H359.196H359.297L359.633 528.73L359.852 528.529L359.952 528.411V528.327L360.137 528.058V527.89C360.137 527.89 360.137 527.789 360.137 527.755V527.654C360.146 527.554 360.146 527.452 360.137 527.352L360.49 514.22Z" fill="#726114"/>
<path d="M356.926 511.261C361.734 512.943 361.667 515.633 356.775 517.314L328.111 527.251C322.368 528.915 316.27 528.915 310.526 527.251L282.3 517.583C277.475 515.902 277.525 513.212 282.418 511.53L310.997 501.594C316.746 499.929 322.85 499.929 328.599 501.594L356.926 511.261Z" fill="#F3D038"/>
<path d="M471.615 503.409C471.631 503.532 471.631 503.657 471.615 503.779C471.622 503.813 471.622 503.847 471.615 503.88C471.583 503.984 471.544 504.085 471.497 504.183C471.424 504.308 471.34 504.426 471.245 504.536V504.62C471.141 504.735 471.029 504.842 470.909 504.939C470.763 505.06 470.612 505.172 470.455 505.276L470.32 505.377L469.883 505.629L469.698 505.713L469.177 505.965L468.975 506.066L468.135 506.385L439.471 516.305L438.614 516.541C438.193 516.675 437.773 516.793 437.319 516.894L435.638 517.213L434.545 517.348L433.184 517.482H432.915C432.175 517.482 431.435 517.482 430.679 517.566C429.905 517.566 429.115 517.566 428.359 517.566C427.585 517.566 426.829 517.449 426.106 517.348C425.4 517.247 424.694 517.129 424.038 516.978C423.39 516.833 422.75 516.653 422.122 516.44L393.391 506.823L392.937 506.654L392.55 506.503L392.18 506.335L391.827 506.167L391.525 505.999L391.205 505.814L390.97 505.629L390.701 505.444L390.499 505.242L390.314 505.057L390.146 504.805L390.028 504.654V504.401C389.944 504.211 389.898 504.005 389.894 503.796L389.995 516.423C389.997 516.632 390.043 516.838 390.129 517.028L390.213 517.23L390.331 517.381C390.381 517.469 390.437 517.553 390.499 517.634L390.667 517.785L390.886 518.02L391.071 518.155L391.39 518.39L391.625 518.525L392.012 518.743C392.091 518.792 392.176 518.832 392.264 518.861L392.735 519.079L393.054 519.214L393.559 519.399L421.785 529.067C422.11 529.188 422.441 529.289 422.777 529.369L423.635 529.588H423.769L424.442 529.722L425.215 529.857L425.837 529.958H425.955L426.711 530.042H427.451H428.157H428.947H431.435H432.377H432.746H433.032H433.553C433.839 530.042 434.108 530.042 434.377 529.941L435.47 529.806H435.789L437.101 529.621H437.269C437.723 529.521 438.143 529.403 438.563 529.268C438.984 529.134 439.034 529.167 439.236 529.083H439.421L468.084 519.164L468.891 518.861L469.11 518.76L469.53 518.558H469.614L469.799 518.457L470.051 518.323L470.236 518.205L470.371 518.104H470.472L470.808 517.835L471.026 517.65L471.144 517.516C471.215 517.433 471.277 517.343 471.329 517.247C471.329 517.247 471.329 517.129 471.329 517.079C471.337 517.034 471.337 516.989 471.329 516.944C471.336 516.911 471.336 516.877 471.329 516.843C471.337 516.743 471.337 516.641 471.329 516.541L471.615 503.409Z" fill="#1F1F89"/>
<path d="M468.051 500.433C472.859 502.115 472.792 504.805 467.899 506.503L439.236 516.423C433.492 518.088 427.394 518.088 421.651 516.423L393.391 506.823C388.566 505.141 388.616 502.451 393.508 500.77L422.088 490.85C427.834 489.149 433.945 489.12 439.706 490.766L468.051 500.433Z" fill="#3878FF"/>
</g>
<defs>
<linearGradient id="paint0_linear_0_420" x1="61.2613" y1="482.746" x2="63.8509" y2="527.839" gradientUnits="userSpaceOnUse">
<stop stop-color="#241084"/>
<stop offset="0.99" stop-color="#0A5DE2"/>
</linearGradient>
<linearGradient id="paint1_linear_0_420" x1="4956.24" y1="12573.8" x2="3915.49" y2="14032.9" gradientUnits="userSpaceOnUse">
<stop stop-color="#241084"/>
<stop offset="0.99" stop-color="#0A5DE2"/>
</linearGradient>
<linearGradient id="paint2_linear_0_420" x1="598.609" y1="489.337" x2="584.182" y2="525.417" gradientUnits="userSpaceOnUse">
<stop stop-color="#241084" stop-opacity="0.8"/>
<stop offset="0.99" stop-color="#0A5DE2" stop-opacity="0"/>
</linearGradient>
<clipPath id="clip0_0_420">
<rect width="671" height="573" fill="white"/>
</clipPath>
</defs>
</svg>
